Coordinates
version=1
nRows=10
nColumns=46
inDegrees=yes

Units are S.I. units (second, meters, Newtons, ...)
Angles are in degrees.

endheader
time	pelvis_tilt	pelvis_list	pelvis_rotation	pelvis_tx	pelvis_ty	pelvis_tz	bb_angle	bb_tx	bb_ty	bb_tz	hip_flexion_r	hip_adduction_r	hip_rotation_r	knee_angle_r	knee_angle_r_beta	ankle_angle_r	subtalar_angle_r	mtp_angle_r	crank_angle_r	hip_flexion_l	hip_adduction_l	hip_rotation_l	knee_angle_l	knee_angle_l_beta	ankle_angle_l	subtalar_angle_l	mtp_angle_l	crank_angle_l	lumbar_extension	lumbar_bending	lumbar_rotation	arm_flex_r	arm_add_r	arm_rot_r	elbow_flex_r	pro_sup_r	wrist_flex_r	wrist_dev_r	arm_flex_l	arm_add_l	arm_rot_l	elbow_flex_l	pro_sup_l	wrist_flex_l	wrist_dev_l
      5.00500000	    -19.86454422	     -5.84151539	      2.34321061	      0.37769740	      1.20478378	     -0.21713882	      0.00000000	      0.50000000	      0.00000000	      0.25000000	     55.03091092	     -7.39085881	     -7.78165693	     92.42704296	      1.61315622	     -7.83961840	     -1.30294165	      0.00000000	      0.00000000	     48.86530162	    -12.09194694	     -0.31654886	     49.03813777	      0.85587696	      8.01969758	      8.11486229	      0.00000000	      0.00000000	    -58.69216903	      3.12770867	     -1.61903507	     58.40038568	    -19.91233156	     33.81773087	     64.90343773	     47.80144956	      0.00000000	      0.00000000	     50.54428352	    -41.12055732	     33.85731353	     84.51455625	     50.53948800	      0.00000000	      0.00000000
      5.01000000	    -19.64375563	     -6.34648035	      2.28288243	      0.37836230	      1.20365728	     -0.21813296	      0.00000000	      0.50000000	      0.00000000	      0.25000000	     56.06246137	     -7.24274165	     -7.82985493	     94.35639494	      1.64682976	     -6.92683615	     -0.93097146	      0.00000000	      0.00000000	     47.31309225	    -12.55462630	     -0.44799438	     47.11494438	      0.82231091	      6.64878816	      8.41550321	      0.00000000	      0.00000000	    -58.51521268	      3.70084154	     -1.27042733	     58.43384854	    -19.75517013	     33.98946597	     64.62297518	     47.76555001	      0.00000000	      0.00000000	     49.85699005	    -40.84451568	     33.74384026	     84.09398248	     50.45009429	      0.00000000	      0.00000000
      5.01500000	    -19.28461708	     -6.46067935	      2.21458175	      0.37912448	      1.20262514	     -0.21937644	      0.00000000	      0.50000000	      0.00000000	      0.25000000	     57.07314492	     -7.44397955	     -7.48266123	     96.37791564	      1.68211195	     -5.77284990	      0.15701635	      0.00000000	      0.00000000	     45.49367283	    -12.65620098	     -0.81042123	     45.22216402	      0.78927566	      5.19809033	      8.37689368	      0.00000000	      0.00000000	    -58.44705188	      4.11122478	     -1.21753522	     58.57433312	    -19.52805657	     34.50623438	     63.88076378	     47.69324071	      0.00000000	      0.00000000	     49.02700060	    -40.17471500	     33.06093538	     83.19526982	     50.22244433	      0.00000000	      0.00000000
      5.02000000	    -18.99506200	     -6.78627286	      2.12646715	      0.37968111	      1.20156943	     -0.22060037	      0.00000000	      0.50000000	      0.00000000	      0.25000000	     58.09358402	     -7.42020370	     -7.33039462	     98.20866824	      1.71406461	     -4.75731857	      0.90805599	      0.00000000	      0.00000000	     43.86187393	    -12.89621059	     -0.88791057	     43.45981941	      0.75851694	      3.90111191	      8.25935364	      0.00000000	      0.00000000	    -58.22055875	      4.80917516	     -1.58575103	     60.25125316	    -18.57205928	     37.20069685	     60.91777719	     47.52026876	      0.00000000	      0.00000000	     46.88612058	    -39.02260564	     29.47784540	     82.23950321	     49.73368973	      0.00000000	      0.00000000
      5.02500000	    -18.86803723	     -7.34664553	      1.99186252	      0.38005180	      1.20023420	     -0.22162277	      0.00000000	      0.50000000	      0.00000000	      0.25000000	     59.28283851	     -7.17021432	     -7.43379051	     99.90182491	      1.74361577	     -3.98630111	      0.91697717	      0.00000000	      0.00000000	     42.60066995	    -13.40339930	     -0.80679319	     41.96466912	      0.73242165	      2.64949086	      8.45812802	      0.00000000	      0.00000000	    -58.06774877	      5.47882143	     -1.07938988	     60.28966357	    -18.54766346	     37.22954996	     60.90984263	     47.51613854	      0.00000000	      0.00000000	     46.29532614	    -39.03436594	     29.51542530	     82.12650350	     49.71795388	      0.00000000	      0.00000000
      5.03000000	    -18.47269788	     -7.39100081	      1.76765018	      0.38067045	      1.19993707	     -0.22228583	      0.00000000	      0.50000000	      0.00000000	      0.25000000	     60.21666978	     -7.12363346	     -6.98228441	    101.52805695	      1.77199888	     -2.81788638	      1.77001156	      0.00000000	      0.00000000	     40.73552862	    -13.57978421	     -1.32605453	     40.15669870	      0.70086661	      0.84108376	      8.44189752	      0.00000000	      0.00000000	    -58.18385210	      5.65790573	     -1.06752834	     60.55496780	    -18.50902221	     37.82776279	     60.55727190	     47.52131109	      0.00000000	      0.00000000	     45.50721019	    -38.59113489	     28.60481453	     81.63859774	     49.54547263	      0.00000000	      0.00000000
      5.03500000	    -18.30727889	     -7.87016973	      1.94675721	      0.38071837	      1.19870602	     -0.22373317	      0.00000000	      0.50000000	      0.00000000	      0.25000000	     61.35558346	     -7.24289177	     -7.23022430	    103.07004361	      1.79891162	     -2.14748776	      1.77504001	      0.00000000	      0.00000000	     39.64627768	    -13.84553595	     -1.06968839	     38.93363233	      0.67952007	     -0.52605201	      8.68614812	      0.00000000	      0.00000000	    -58.07787548	      6.54203482	     -0.72132721	     60.70512448	    -18.57404964	     37.90766789	     60.48132694	     47.51300513	      0.00000000	      0.00000000	     45.04518084	    -38.48154284	     28.49392047	     81.46172193	     49.50532868	      0.00000000	      0.00000000
      5.04000000	    -17.92705725	     -7.85147606	      1.93950345	      0.38139917	      1.19876744	     -0.22514921	      0.00000000	      0.50000000	      0.00000000	      0.25000000	     62.23378918	     -7.55378390	     -6.91431818	    104.43214019	      1.82268469	     -1.25685918	      2.56615602	      0.00000000	      0.00000000	     37.92479627	    -13.75211111	     -1.30386464	     37.34649497	      0.65181930	     -2.42443696	      8.26906296	      0.00000000	      0.00000000	    -58.19864015	      6.96951214	     -0.93100616	     61.53198823	    -18.64900180	     39.59308130	     59.61988442	     47.56384087	      0.00000000	      0.00000000	     43.87344454	    -37.24035977	     26.26220908	     80.51278651	     49.14921136	      0.00000000	      0.00000000
      5.04500000	    -17.92802273	     -8.20595742	      1.68686449	      0.38175459	      1.19817584	     -0.22603086	      0.00000000	      0.50000000	      0.00000000	      0.25000000	     63.53296272	     -7.28761528	     -6.85311598	    105.63375710	      1.84365686	     -0.61677131	      2.46312329	      0.00000000	      0.00000000	     36.88826259	    -14.21686663	     -1.54720530	     36.23159424	      0.63236061	     -3.90132068	      8.68477054	      0.00000000	      0.00000000	    -58.08704813	      7.46057763	     -0.50807652	     61.77930553	    -18.69837265	     39.66990264	     59.58255662	     47.56092824	      0.00000000	      0.00000000	     43.36450014	    -37.12756135	     26.19561203	     80.40003918	     49.12763245	      0.00000000	      0.00000000
      5.05000000	    -17.80535589	     -8.37765862	      1.36929528	      0.38243021	      1.19785262	     -0.22639564	      0.00000000	      0.50000000	      0.00000000	      0.25000000	     64.69982720	     -7.08393332	     -6.68501792	    106.74646007	      1.86307719	     -0.15585071	      2.61454116	      0.00000000	      0.00000000	     35.66975118	    -14.65125323	     -2.11374478	     35.17938926	      0.61399617	     -5.50845088	      8.97054639	      0.00000000	      0.00000000	    -58.08035505	      7.67005367	     -0.15350960	     61.94397422	    -18.78614277	     39.86722081	     59.51232223	     47.56801908	      0.00000000	      0.00000000	     42.83382392	    -36.90705507	     25.97781486	     80.18416908	     49.07414060	      0.00000000	      0.00000000
